<?xml version="1.0" encoding="utf-8"?>
<!-- Generator: Adobe Illustrator 22.0.1, SVG Export Plug-In . SVG Version: 6.00 Build 0)  -->
<svg version="1.1" id="Calque_1" xmlns="http://www.w3.org/2000/svg" xmlns:xlink="http://www.w3.org/1999/xlink" x="0px" y="0px"
	 viewBox="0 0 209.1 115.6" style="enable-background:new 0 0 209.1 115.6;" xml:space="preserve">
<style type="text/css">
	.st0{fill:#243069;}
	.st1{fill:#FFFFFF;}
	.st2{fill:#B82025;}
	.st3{fill:#CB0000;}
	.st4{fill:#FEFEFE;}
	.st5{fill:#000066;}
	.st6{display:none;fill:#FFFFFF;stroke:#000000;stroke-width:0.25;stroke-miterlimit:10;}
</style>
<g>
	<rect x="-0.2" y="0.1" class="st0" width="87.4" height="62.2"/>
	<g>
		<g>
			<polygon class="st1" points="7.3,8.6 5,9.7 5.4,7.2 3.6,5.2 6.1,5.1 7.3,2.8 8.4,5.1 10.9,5.2 9.1,7.2 9.5,9.7 			"/>
			<polygon class="st1" points="21.7,8.6 19.5,9.7 19.9,7.2 18.1,5.2 20.6,5.1 21.7,2.8 22.8,5.1 25.4,5.2 23.5,7.2 24,9.7 			"/>
			<polygon class="st1" points="36.2,8.6 33.9,9.7 34.4,7.2 32.5,5.2 35.1,5.1 36.2,2.8 37.3,5.1 39.8,5.2 38,7.2 38.4,9.7 			"/>
			<polygon class="st1" points="50.6,8.6 48.4,9.7 48.8,7.2 47,5.2 49.5,5.1 50.6,2.8 51.8,5.1 54.3,5.2 52.5,7.2 52.9,9.7 			"/>
			<polygon class="st1" points="65.1,8.6 62.8,9.7 63.3,7.2 61.4,5.2 64,5.1 65.1,2.8 66.2,5.1 68.8,5.2 66.9,7.2 67.4,9.7 			"/>
			<polygon class="st1" points="79.6,8.6 77.3,9.7 77.7,7.2 75.9,5.2 78.4,5.1 79.6,2.8 80.7,5.1 83.2,5.2 81.4,7.2 81.8,9.7 			"/>
		</g>
		<g>
			<polygon class="st1" points="14.5,14.7 12.2,15.9 12.7,13.4 10.8,11.4 13.4,11.2 14.5,8.9 15.6,11.2 18.1,11.4 16.3,13.4 
				16.7,15.9 			"/>
			<polygon class="st1" points="28.9,14.7 26.7,15.9 27.1,13.4 25.3,11.4 27.8,11.2 28.9,8.9 30.1,11.2 32.6,11.4 30.8,13.4 
				31.2,15.9 			"/>
			<polygon class="st1" points="43.4,14.7 41.2,15.9 41.6,13.4 39.8,11.4 42.3,11.2 43.4,8.9 44.5,11.2 47.1,11.4 45.2,13.4 
				45.7,15.9 			"/>
			<polygon class="st1" points="57.9,14.7 55.6,15.9 56,13.4 54.2,11.4 56.7,11.2 57.9,8.9 59,11.2 61.5,11.4 59.7,13.4 60.1,15.9 
							"/>
			<polygon class="st1" points="72.3,14.7 70.1,15.9 70.5,13.4 68.7,11.4 71.2,11.2 72.3,8.9 73.5,11.2 76,11.4 74.2,13.4 
				74.6,15.9 			"/>
		</g>
		<g>
			<polygon class="st1" points="7.3,20.9 5,22 5.4,19.5 3.6,17.5 6.1,17.4 7.3,15.1 8.4,17.4 10.9,17.5 9.1,19.5 9.5,22 			"/>
			<polygon class="st1" points="21.7,20.9 19.5,22 19.9,19.5 18.1,17.5 20.6,17.4 21.7,15.1 22.8,17.4 25.4,17.5 23.5,19.5 24,22 
							"/>
			<polygon class="st1" points="36.2,20.9 33.9,22 34.4,19.5 32.5,17.5 35.1,17.4 36.2,15.1 37.3,17.4 39.8,17.5 38,19.5 38.4,22 
							"/>
			<polygon class="st1" points="50.6,20.9 48.4,22 48.8,19.5 47,17.5 49.5,17.4 50.6,15.1 51.8,17.4 54.3,17.5 52.5,19.5 52.9,22 
							"/>
			<polygon class="st1" points="65.1,20.9 62.8,22 63.3,19.5 61.4,17.5 64,17.4 65.1,15.1 66.2,17.4 68.8,17.5 66.9,19.5 67.4,22 
							"/>
			<polygon class="st1" points="79.6,20.9 77.3,22 77.7,19.5 75.9,17.5 78.4,17.4 79.6,15.1 80.7,17.4 83.2,17.5 81.4,19.5 81.8,22 
							"/>
		</g>
		<g>
			<polygon class="st1" points="14.5,27 12.2,28.2 12.7,25.7 10.8,23.7 13.4,23.5 14.5,21.2 15.6,23.5 18.1,23.7 16.3,25.7 
				16.7,28.2 			"/>
			<polygon class="st1" points="28.9,27 26.7,28.2 27.1,25.7 25.3,23.7 27.8,23.5 28.9,21.2 30.1,23.5 32.6,23.7 30.8,25.7 
				31.2,28.2 			"/>
			<polygon class="st1" points="43.4,27 41.2,28.2 41.6,25.7 39.8,23.7 42.3,23.5 43.4,21.2 44.5,23.5 47.1,23.7 45.2,25.7 
				45.7,28.2 			"/>
			<polygon class="st1" points="57.9,27 55.6,28.2 56,25.7 54.2,23.7 56.7,23.5 57.9,21.2 59,23.5 61.5,23.7 59.7,25.7 60.1,28.2 
							"/>
			<polygon class="st1" points="72.3,27 70.1,28.2 70.5,25.7 68.7,23.7 71.2,23.5 72.3,21.2 73.5,23.5 76,23.7 74.2,25.7 74.6,28.2 
							"/>
		</g>
		<g>
			<polygon class="st1" points="7.3,33.2 5,34.4 5.4,31.8 3.6,29.8 6.1,29.7 7.3,27.4 8.4,29.7 10.9,29.8 9.1,31.8 9.5,34.4 			"/>
			<polygon class="st1" points="21.7,33.2 19.5,34.4 19.9,31.8 18.1,29.8 20.6,29.7 21.7,27.4 22.8,29.7 25.4,29.8 23.5,31.8 
				24,34.4 			"/>
			<polygon class="st1" points="36.2,33.2 33.9,34.4 34.4,31.8 32.5,29.8 35.1,29.7 36.2,27.4 37.3,29.7 39.8,29.8 38,31.8 
				38.4,34.4 			"/>
			<polygon class="st1" points="50.6,33.2 48.4,34.4 48.8,31.8 47,29.8 49.5,29.7 50.6,27.4 51.8,29.7 54.3,29.8 52.5,31.8 
				52.9,34.4 			"/>
			<polygon class="st1" points="65.1,33.2 62.8,34.4 63.3,31.8 61.4,29.8 64,29.7 65.1,27.4 66.2,29.7 68.8,29.8 66.9,31.8 
				67.4,34.4 			"/>
			<polygon class="st1" points="79.6,33.2 77.3,34.4 77.7,31.8 75.9,29.8 78.4,29.7 79.6,27.4 80.7,29.7 83.2,29.8 81.4,31.8 
				81.8,34.4 			"/>
		</g>
		<g>
			<polygon class="st1" points="14.5,39.3 12.2,40.5 12.7,38 10.8,36 13.4,35.8 14.5,33.6 15.6,35.8 18.1,36 16.3,38 16.7,40.5 			
				"/>
			<polygon class="st1" points="28.9,39.3 26.7,40.5 27.1,38 25.3,36 27.8,35.8 28.9,33.6 30.1,35.8 32.6,36 30.8,38 31.2,40.5 			
				"/>
			<polygon class="st1" points="43.4,39.3 41.2,40.5 41.6,38 39.8,36 42.3,35.8 43.4,33.6 44.5,35.8 47.1,36 45.2,38 45.7,40.5 			
				"/>
			<polygon class="st1" points="57.9,39.3 55.6,40.5 56,38 54.2,36 56.7,35.8 57.9,33.6 59,35.8 61.5,36 59.7,38 60.1,40.5 			"/>
			<polygon class="st1" points="72.3,39.3 70.1,40.5 70.5,38 68.7,36 71.2,35.8 72.3,33.6 73.5,35.8 76,36 74.2,38 74.6,40.5 			"/>
		</g>
		<g>
			<polygon class="st1" points="7.3,45.5 5,46.7 5.4,44.1 3.6,42.1 6.1,42 7.3,39.7 8.4,42 10.9,42.1 9.1,44.1 9.5,46.7 			"/>
			<polygon class="st1" points="21.7,45.5 19.5,46.7 19.9,44.1 18.1,42.1 20.6,42 21.7,39.7 22.8,42 25.4,42.1 23.5,44.1 24,46.7 
							"/>
			<polygon class="st1" points="36.2,45.5 33.9,46.7 34.4,44.1 32.5,42.1 35.1,42 36.2,39.7 37.3,42 39.8,42.1 38,44.1 38.4,46.7 
							"/>
			<polygon class="st1" points="50.6,45.5 48.4,46.7 48.8,44.1 47,42.1 49.5,42 50.6,39.7 51.8,42 54.3,42.1 52.5,44.1 52.9,46.7 
							"/>
			<polygon class="st1" points="65.1,45.5 62.8,46.7 63.3,44.1 61.4,42.1 64,42 65.1,39.7 66.2,42 68.8,42.1 66.9,44.1 67.4,46.7 
							"/>
			<polygon class="st1" points="79.6,45.5 77.3,46.7 77.7,44.1 75.9,42.1 78.4,42 79.6,39.7 80.7,42 83.2,42.1 81.4,44.1 81.8,46.7 
							"/>
		</g>
		<g>
			<polygon class="st1" points="14.5,51.6 12.2,52.8 12.7,50.3 10.8,48.3 13.4,48.2 14.5,45.9 15.6,48.2 18.1,48.3 16.3,50.3 
				16.7,52.8 			"/>
			<polygon class="st1" points="28.9,51.6 26.7,52.8 27.1,50.3 25.3,48.3 27.8,48.2 28.9,45.9 30.1,48.2 32.6,48.3 30.8,50.3 
				31.2,52.8 			"/>
			<polygon class="st1" points="43.4,51.6 41.2,52.8 41.6,50.3 39.8,48.3 42.3,48.2 43.4,45.9 44.5,48.2 47.1,48.3 45.2,50.3 
				45.7,52.8 			"/>
			<polygon class="st1" points="57.9,51.6 55.6,52.8 56,50.3 54.2,48.3 56.7,48.2 57.9,45.9 59,48.2 61.5,48.3 59.7,50.3 60.1,52.8 
							"/>
			<polygon class="st1" points="72.3,51.6 70.1,52.8 70.5,50.3 68.7,48.3 71.2,48.2 72.3,45.9 73.5,48.2 76,48.3 74.2,50.3 
				74.6,52.8 			"/>
		</g>
		<g>
			<polygon class="st1" points="7.3,57.8 5,59 5.4,56.5 3.6,54.4 6.1,54.3 7.3,52 8.4,54.3 10.9,54.4 9.1,56.5 9.5,59 			"/>
			<polygon class="st1" points="21.7,57.8 19.5,59 19.9,56.5 18.1,54.4 20.6,54.3 21.7,52 22.8,54.3 25.4,54.4 23.5,56.5 24,59 			
				"/>
			<polygon class="st1" points="36.2,57.8 33.9,59 34.4,56.5 32.5,54.4 35.1,54.3 36.2,52 37.3,54.3 39.8,54.4 38,56.5 38.4,59 			
				"/>
			<polygon class="st1" points="50.6,57.8 48.4,59 48.8,56.5 47,54.4 49.5,54.3 50.6,52 51.8,54.3 54.3,54.4 52.5,56.5 52.9,59 			
				"/>
			<polygon class="st1" points="65.1,57.8 62.8,59 63.3,56.5 61.4,54.4 64,54.3 65.1,52 66.2,54.3 68.8,54.4 66.9,56.5 67.4,59 			
				"/>
			<polygon class="st1" points="79.6,57.8 77.3,59 77.7,56.5 75.9,54.4 78.4,54.3 79.6,52 80.7,54.3 83.2,54.4 81.4,56.5 81.8,59 
							"/>
		</g>
	</g>
	<rect x="87.2" y="0.1" class="st2" width="121.7" height="8.9"/>
	<rect x="87.2" y="8.9" class="st1" width="121.7" height="8.9"/>
	<rect x="87.2" y="17.8" class="st2" width="121.7" height="8.9"/>
	<rect x="87.2" y="26.7" class="st1" width="121.7" height="8.9"/>
	<rect x="87.2" y="35.6" class="st2" width="121.7" height="8.9"/>
	<rect x="87.2" y="44.5" class="st1" width="121.7" height="8.9"/>
	<rect x="87.2" y="53.4" class="st2" width="121.7" height="8.9"/>
	<rect x="-0.2" y="62.2" class="st1" width="209.1" height="8.9"/>
	<rect x="-0.2" y="71.1" class="st2" width="209.1" height="8.9"/>
	<rect x="-0.2" y="80" class="st1" width="209.1" height="8.9"/>
	<rect x="-0.2" y="88.9" class="st2" width="209.1" height="8.9"/>
	<rect x="-0.2" y="97.8" class="st1" width="209.1" height="8.9"/>
	<rect x="-0.2" y="106.7" class="st2" width="209.1" height="8.9"/>
</g>
<g>
	<path class="st3" d="M115.4,115.5c-7.1,0-14.2,0-21.3,0c-1.1-1.2-1-2.8-1-4.3c0-12.2,0-24.4,0-36.6c0-3.9-0.1-4-3.7-4
		c-5.1,0-8,0-8,0L128,45c0,0,48.7,0,77.1,0c1.5,0,3.1-0.3,4.4,1.1c0,7.8,0,15.7,0,23.5c-1.3,1.3-2.8,1.1-4.4,1.1
		c-28,0-56.1,0-84.1,0c-4.7,0-4.7,0-4.7,5.1c0,11.8,0,23.7,0,35.5C116.3,112.8,116.4,114.3,115.4,115.5z"/>
	<path class="st4" d="M115.4,115.5c0-14.5,0-29,0-43.6c0-2,0.4-2.5,2.2-2.5c30.6,0.1,61.3,0,91.9,0c0,2.3,0,4.6,0,6.9
		c-0.7,0.8-1.5,0.9-2.5,0.9c-13.4,0-26.8,0.1-40.2,0c-0.3,0-0.6-0.1-1-0.1c0.9,0.2,1.5,0.6,2.2,1c12.8,7.1,25.6,14.1,38.4,21.2
		c1.2,0.7,2.5,1.3,3.1,2.8c0,1.4,0,2.9,0,4.3c-1.1,0.9-2,0.1-2.9-0.4c-11.3-6.3-22.7-12.4-33.9-18.9c-5.2-3-10.5-5.8-15.8-8.8
		c-1.4-0.8-2.9-1-4.5-1c-3.6,0-7.3,0.1-10.6,0c0.5,0.1,1.1,0.5,1.8,0.9c20.9,11.5,41.7,23,62.6,34.5c1.1,0.6,2.8,0.8,2.9,2.8
		c-7.9,0-15.8,0-23.8,0c-2.8-0.7-5.3-2.2-7.8-3.5c-17.3-9.5-34.5-19-51.8-28.6c-0.5-0.3-1-0.5-1.5-0.8c-1.1-0.7-1.6-0.3-1.6,1.1
		c0,2.7,0,5.3,0,8c0,6.7,0,13.4,0,20c0,1.3,0.2,2.7-0.8,3.8C119.6,115.5,117.5,115.5,115.4,115.5z"/>
	<path class="st4" d="M209.4,46c-30.5,0-83.6,0.1-83.6,0.1l83.7-46c0,0,0,9.3,0,13.4c-0.8,1.3-2.1,1.9-3.3,2.6
		c-13.3,7.3-26.6,14.6-40.1,22.1c13.4,0,26.5,0,39.5,0c1.3,0,2.8-0.3,3.9,0.9C209.4,41.4,209.4,43.7,209.4,46z"/>
	<path class="st4" d="M82.9,69.6c0,0-21.9,0,8.6-0.1c2,0,2.5,0.5,2.5,2.7C94,86.7,94,101.1,94,115.5c-2.1,0-4.2,0-6.3,0
		c-1-1.2-0.8-2.6-0.8-4c0-8.9,0-17.8,0-26.7c0-3-0.1-3-2.5-1.7c-17.5,9.6-35,19.3-52.4,28.9c-2.5,1.4-5,2.8-7.8,3.5
		c-2.6,0-5.2,0-7.8,0c-0.1-1.4,1-1.7,1.8-2.2c12.9-7.1,25.7-14.3,38.6-21.2c8.4-4.5,16.8-9.1,25.2-13.7c1-0.6,2-1.2,3.1-1.3
		c-3.4,0.5-6.7,0.3-10.1,0.2c-2.4,0-4.6,0.5-6.7,1.7c-21,11.8-42.3,22.9-63.3,34.7c-1.5,0.8-5.1,1.8-5.1,1.8L82.9,69.6z"/>
	<path class="st5" d="M121.7,115.5c0-11.6,0-23.1,0-34.9c1.7,0.2,3,1.4,4.4,2.1c19.2,10.6,38.5,21.2,57.7,31.7c0.5,0.3,1,0.6,1.4,1
		C164,115.5,142.8,115.5,121.7,115.5z"/>
	<path class="st5" d="M24.2,115.5c2.8-2.2,6.1-3.6,9.1-5.3c17.6-9.8,35.3-19.5,53-29.3c0.3-0.2,0.7-0.3,1.4-0.7
		c0,11.9,0,23.6,0,35.3C66.5,115.5,45.4,115.5,24.2,115.5z"/>
	<path class="st3" d="M-0.2,115.5c0.6-0.9,2.2-1.3,3.1-1.8c22.3-12.2,43.5-24.3,65.8-36.5c0.7-0.4,1.4-0.8,2.3-0.8
		c4.8,0,10.6,0,15.7,0c-0.9,1.2-2,1.4-3,1.9c-22.2,12.1-44.4,24.2-66.5,36.3c-0.3,0.2-0.8,0.2-0.8,0.8
		C11.1,115.5,5.2,115.5-0.2,115.5z"/>
	<path class="st5" d="M209.4,39.1c-15.3,0-30.6,0-45.9,0c-0.2-0.7,0.2-0.8,0.4-1c14.8-8.2,29.5-16.3,44.3-24.5
		c0.4-0.2,0.7-0.4,1.1-0.2C209.4,22,209.4,30.5,209.4,39.1z"/>
	<path class="st5" d="M209.4,102.2c-15.2-8.4-30.4-16.7-45.7-25.1c0-0.2,0.1-0.4,0.1-0.6c15.2,0,30.4,0,45.6,0
		C209.4,85.1,209.4,93.6,209.4,102.2z"/>
	<path class="st3" d="M208.9,115.5c-10.9-6-21.7-12.1-32.6-18.1c-11.9-6.6-23.8-13.1-35.7-19.7c-0.4-0.2-0.7-0.4-1-1.2
		c3.2,0,6.5,0.2,9.7-0.1c3.8-0.3,7.1,0.8,10.6,2.7c15.9,9,31.9,17.8,47.9,26.7c0.5,0.3,1,0.4,1.6,0.6c0,2.8,0,5.5,0,8.3
		C209.4,115,209.7,115.7,208.9,115.5z"/>
</g>
<polygon class="st6" points="209.5,115.6 -0.1,115.6 209.5,0.1 "/>
</svg>
