<?xml version="1.0" encoding="utf-8"?>
<!-- Generator: Adobe Illustrator 19.0.0, SVG Export Plug-In . SVG Version: 6.00 Build 0)  -->
<svg version="1.1" id="Layer_1" xmlns="http://www.w3.org/2000/svg" xmlns:xlink="http://www.w3.org/1999/xlink" x="0px" y="0px"
	 viewBox="-49 141 512 512" style="enable-background:new -49 141 512 512;" xml:space="preserve">
<style type="text/css">
	.st0{fill:#FFFFFF;}
	.st1{fill:#314E55;}
	.st2{fill:#81A4E3;}
	.st3{fill:#D8D8D8;}
</style>
<circle class="st0" cx="205.7" cy="395.7" r="254.7"/>
<g>
	<path class="st1" d="M389,250.5c-0.2-0.9-0.5-1.8-0.7-2.7c-1.7-5-4.7-9.6-9.1-14.1c-4.7-4.7-10.5-8.9-18.2-13
		c-8-4.3-16.7-7.9-27.5-11.4c-12.9-4.2-26.6-7.5-40.8-9.9c-8.4-1.4-16.7-2.6-24.6-3.6c-6.8-0.8-13.9-1.5-21.2-2
		c-6.5-0.4-12.9-0.7-19.4-1l-8.3-0.4l-1.3-0.2l-21.1,0l-14.1,0.8c-5.9,0.3-11.9,0.6-17.8,1c-9,0.6-18.6,1.7-29.4,3.2
		c-24.1,3.5-43.6,8.1-61.4,14.5c-10.7,3.9-19.2,7.9-26.8,12.7c-5.4,3.4-9.7,7-13.2,10.8c-4.6,5.1-7.4,10.3-8.6,15.9l-0.8,1.8v4.9
		l3,17.8c1.5,9.7,3,19.4,4.6,29c2,12,4,24,6.1,36L54.1,431c0.6,3.8,2.1,7.4,4.4,10.8c2.7,4.1,6.2,7.8,11,11.7
		c6.6,5.3,14.1,9.9,23.7,14.4c11.5,5.4,24.1,9.8,38.6,13.3c11.5,2.8,23.3,4.9,36.1,6.4c12.6,1.5,25.8,2.2,39.3,2.2
		c4,0,7.9-0.1,11.9-0.2c22.2-0.7,42.6-3.4,62.2-8.1c17.1-4.1,31.7-9.4,44.8-16c7.7-3.9,14.1-8,19.5-12.5c3.3-2.8,6.1-5.5,8.4-8.5
		c3.5-4.4,5.7-9.4,6.7-15c1.2-7.4,2.6-14.9,3.9-22.3l12.4-70.6c1.6-9.4,3.2-18.8,4.8-28.1c1.5-8.7,2.9-17.5,4.3-26.2
		c0.7-4.5,1.4-9.1,2.1-13.6l0.8-5l0.5-10.5L389,250.5z M307,253.4c-5.1,2.4-10.7,4-15,5c-7.9,2-16.4,3.5-26.9,4.8
		c-11.3,1.4-22.4,2.4-33,2.7c-5.4,0.2-10.9,0.4-16.4,0.5l-7.7,0.2l-8.5-0.2c-6.3-0.2-12.6-0.3-19-0.6c-16.5-0.8-31-2.4-44.5-4.8
		c-8.1-1.4-16.6-3.2-24.8-6.4c-2-0.8-4.1-1.8-6.4-3.1c-0.5-0.3-1-0.6-1.5-1.1c0.7-0.5,1.5-1.1,2.7-1.7c2.5-1.4,5.5-2.6,9.3-3.8
		c6.6-2.1,13.8-3.7,23.4-5.3c9.6-1.6,19.6-2.7,30.8-3.5c17.4-1.3,34.5-1.6,51.2-1.1c5.7,0.2,11.5,0.4,17.2,0.7
		c12.3,0.7,23.4,1.9,34,3.5c10.2,1.6,18.3,3.3,25.5,5.4c3.3,1,6.7,2.1,9.8,3.7c1.2,0.7,2.8,1.5,4,2.5
		C310.1,251.7,308.8,252.5,307,253.4z"/>
	<path class="st2" d="M374.6,254c-0.1-0.5-0.2-0.9-0.4-1.4c-0.9-2.8-2.7-5.5-5.6-8.3h0c-3.7-3.7-8.4-7-14.8-10.5
		c-7.2-3.9-15.1-7.1-25-10.4c-12.2-3.9-25.2-7.1-38.7-9.4c-8.2-1.4-16.3-2.6-24-3.5c-6.5-0.8-13.3-1.5-20.3-1.9
		c-6.4-0.4-12.7-0.7-19.1-1l-8.7-0.4c-0.5,0-1-0.1-1.5-0.2l-25.3,0.3l-8,0.4c-5.9,0.3-11.7,0.6-17.6,1c-8.6,0.6-17.8,1.6-28.3,3.1
		c-23.1,3.4-41.7,7.7-58.5,13.8c-9.6,3.5-17.2,7.1-23.9,11.3c-4.3,2.8-7.6,5.4-10.2,8.3c-2.9,3.2-4.5,6.2-5.1,9.2
		c-0.1,0.6-0.3,1.1-0.4,1.6v0.6c0.2,0.7,0.4,1.2,0.5,1.8l2.3,14.9c1.5,9.6,3,19.3,4.6,28.9c2,12,4,23.9,6.1,35.9l15.8,90.3
		c0.3,1.8,1,3.4,2.1,5.1c1.9,2.8,4.4,5.5,8,8.4c5.6,4.5,12.2,8.5,20.7,12.5c10.6,5,22.4,9,35.9,12.4c10.8,2.7,22,4.7,34.3,6.1
		c15.6,1.8,32.1,2.5,49,1.9c21.2-0.7,40.6-3.2,59.2-7.7c16-3.8,29.5-8.7,41.5-14.8c6.7-3.4,12.2-6.9,16.8-10.7
		c2.5-2.1,4.6-4.1,6.3-6.3c1.9-2.4,3.1-5.1,3.6-8.2c1.3-7.5,2.6-15,3.9-22.4l12.4-70.5c1.6-9.4,3.2-18.7,4.8-28.1
		c1.5-8.7,2.9-17.4,4.3-26.1c0.7-4.5,1.4-9,2.1-13.5l1.1-7.3L374.6,254z M307,253.4c-5.1,2.4-10.7,4-15,5c-7.9,2-16.4,3.5-26.9,4.8
		c-11.3,1.4-22.4,2.4-33,2.7c-5.4,0.2-10.9,0.4-16.4,0.5l-7.7,0.2l-8.5-0.2c-6.3-0.2-12.6-0.3-19-0.6c-16.5-0.8-31-2.4-44.5-4.8
		c-8.1-1.4-16.6-3.2-24.8-6.4c-2-0.8-4.1-1.8-6.4-3.1c-0.5-0.3-1-0.6-1.5-1.1c0.7-0.5,1.5-1.1,2.7-1.7c2.5-1.4,5.5-2.6,9.3-3.8
		c6.6-2.1,13.8-3.7,23.4-5.3c9.6-1.6,19.6-2.7,30.8-3.5c17.4-1.3,34.5-1.6,51.2-1.1c5.7,0.2,11.5,0.4,17.2,0.7
		c12.3,0.7,23.4,1.9,34,3.5c10.2,1.6,18.3,3.3,25.5,5.4c3.3,1,6.7,2.1,9.8,3.7c1.2,0.7,2.8,1.5,4,2.5
		C310.1,251.7,308.8,252.5,307,253.4z"/>
	<path class="st1" d="M207.2,328.2C207.2,328.2,207.2,328.2,207.2,328.2c-17.1,0-33.1,6.6-45.1,18.6c-11.6,11.6-18,27-18,43.4
		c0,34,28.3,61.6,63.1,61.6c0,0,0,0,0.1,0c16.8,0,32.6-6.5,44.5-18.1c12-11.7,18.5-27.2,18.5-43.7
		C270.3,355.9,242,328.2,207.2,328.2z"/>
	<path class="st3" d="M241.5,423.1c-9.1,8.9-21.2,13.9-34.1,13.9c0,0,0,0-0.1,0c-26.6,0-48.2-21-48.2-46.8c0-12.3,4.8-24,13.7-32.8
		c9.1-9.2,21.4-14.2,34.5-14.2c0,0,0,0,0,0c26.6,0,48.2,21,48.2,46.9C255.5,402.4,250.5,414.2,241.5,423.1z"/>
	<path class="st1" d="M207.4,355.3L207.4,355.3C207.3,355.3,207.3,355.3,207.4,355.3c-9.7,0-18.7,3.7-25.4,10.4
		c-6.5,6.5-10.1,15.2-10.1,24.3c0,19,15.8,34.6,35.2,34.6c0,0,0.1,0,0.1,0c9.5,0,18.4-3.7,25.1-10.3c6.5-6.5,10.2-15.2,10.2-24.3
		C242.5,370.9,226.8,355.4,207.4,355.3z"/>
	<path class="st3" d="M221.9,403.8c-3.9,3.9-9.1,6-14.6,6c0,0,0,0-0.1,0c-11.2,0-20.4-8.9-20.4-19.8c0-5.2,2-10.1,5.7-13.8
		c3.9-3.9,9.1-6,14.8-6c0,0,0,0,0,0c11.2,0,20.3,8.9,20.3,19.8C227.6,395.2,225.6,400.1,221.9,403.8z"/>
	<path class="st1" d="M335.5,470.4L335.5,470.4c-3.8-0.7-7.5,0.2-11.2,2.7L323,474c-2,1.4-4.1,2.8-6.2,4
		c-12.4,7.4-26.1,13.2-42,17.9c-17,5-35.2,8.1-53.9,9c-10.1,0.5-20.2,0.5-30.1-0.1c-9.6-0.6-19.1-1.8-28.4-3.5
		c-16.3-3-31.6-7.6-45.6-13.6c-10.9-4.7-19.4-9.4-26.7-14.6c-1.3-1-2.9-1.7-4.5-2.3c-3.8-1.2-7.9-0.8-11.2,1.1
		c-3.3,1.9-5.5,5.1-6.3,8.9c-0.4,2.1-0.5,4.3-0.1,6.2c1.9,10.2,3.8,20.3,5.8,30.5c1.5,7.8,3.1,15.7,4.6,23.5l1.7,8.6
		c0.9,4.5,2.6,8.6,5.2,12.5c2.5,3.8,5.7,7.3,9.8,10.6c5.8,4.8,12.7,9,21.2,12.7c12.5,5.5,26.7,9.7,43.4,12.5
		c11.1,1.9,22.6,3.1,33.5,3.5l25.9,0.3l1.5-0.2c9.1-0.4,18.4-1.2,27.6-2.6c12.3-1.8,23.4-4.3,33.9-7.6c10.8-3.4,19.9-7.3,27.7-12.1
		c5.8-3.5,10.5-7.2,14.4-11.2c5.4-5.7,8.7-11.7,10-18.4l6.1-30.8c2-10.4,4-20.8,6-31.2c0.3-1.8,0.4-3.8,0.1-5.8
		C345.7,475.9,341.4,471.4,335.5,470.4z"/>
	<path class="st2" d="M325.7,516l-6.1,30.8c-0.8,3.9-2.7,7.4-6.2,11.1c-2.9,3.1-6.6,5.9-11.2,8.7c-6.9,4.1-14.9,7.6-24.6,10.7
		c-9.7,3.1-20,5.4-31.5,7c-8.7,1.3-17.5,2.1-26.2,2.4c-0.5,0-1,0.1-1.6,0.2h-22.1c-0.6-0.1-1.2-0.2-1.7-0.2
		c-10.9-0.4-21.7-1.6-32.2-3.4c-15.5-2.7-28.5-6.4-39.9-11.5c-7.2-3.2-13-6.6-17.7-10.6c-2.9-2.4-5.1-4.8-6.9-7.4
		c-1.5-2.2-2.5-4.5-3-7.1l-1.7-8.6c-1.6-7.8-3.1-15.7-4.6-23.5c-1.8-9.3-3.6-18.6-5.3-28.3c7.8,5.4,16.6,10.2,27.7,15
		c15,6.5,31.5,11.4,48.8,14.6c9.8,1.8,20,3,30.1,3.7c10.4,0.7,21.1,0.7,31.8,0.2c19.9-1,39.2-4.3,57.4-9.6
		c17.1-5,31.9-11.4,45.4-19.4c2.4-1.4,4.6-3,6.9-4.5l0,0C329.6,496.2,327.7,506.1,325.7,516z"/>
	<path class="st1" d="M321,239.7c-2.3-1.9-4.9-3.4-6.9-4.4c-4.2-2.2-8.5-3.6-12.5-4.8c-7.8-2.3-16.6-4.2-27.5-5.9
		c-11-1.7-22.6-2.9-35.3-3.6c-5.9-0.4-11.8-0.6-18-0.8c-16.8-0.5-34.4-0.2-52.3,1.1c-11.6,0.8-22.1,2.1-32.1,3.7
		c-10.3,1.7-18.2,3.5-25.4,5.8c-4.8,1.5-8.5,3-11.9,4.9c-2,1.1-4.7,2.7-7,5.1c-5.8,6-5.7,13.7,0.1,19.5c1.7,1.8,3.6,3.2,5.6,4.3
		c3,1.6,5.7,2.9,8.3,3.9c9.4,3.7,19.2,5.7,27.6,7.2c14.1,2.5,29.2,4.1,46.4,5c6.5,0.3,12.9,0.5,19.3,0.7l8.9,0.2l8.1-0.2
		c5.5-0.2,11-0.3,16.5-0.5c11-0.4,22.5-1.4,34.3-2.8c11-1.4,20.1-3,28.6-5.1c4.9-1.2,11.4-3,17.7-6c2.1-1,5.2-2.6,8-5
		c4.6-4.1,5.5-8.3,5.5-11.2C326.7,247.8,325.7,243.6,321,239.7z M307,253.4c-5.1,2.4-10.7,4-15,5c-7.9,2-16.4,3.5-26.9,4.8
		c-11.3,1.4-22.4,2.4-33,2.7c-5.4,0.2-10.9,0.4-16.4,0.5l-7.7,0.2l-8.5-0.2c-6.3-0.2-12.6-0.3-19-0.6c-16.5-0.8-31-2.4-44.5-4.8
		c-8.1-1.4-16.6-3.2-24.8-6.4c-2-0.8-4.1-1.8-6.4-3.1c-0.5-0.3-1-0.6-1.5-1.1c0.7-0.5,1.5-1.1,2.7-1.7c2.5-1.4,5.5-2.6,9.3-3.8
		c6.6-2.1,13.8-3.7,23.4-5.3c9.6-1.6,19.6-2.7,30.8-3.5c17.4-1.3,34.5-1.6,51.2-1.1c5.7,0.2,11.5,0.4,17.2,0.7
		c12.3,0.7,23.4,1.9,34,3.5c10.2,1.6,18.3,3.3,25.5,5.4c3.3,1,6.7,2.1,9.8,3.7c1.2,0.7,2.8,1.5,4,2.5
		C310.1,251.7,308.8,252.5,307,253.4z"/>
</g>
</svg>
