<?xml version="1.0" encoding="utf-8"?>
<!-- Generator: Adobe Illustrator 19.0.0, SVG Export Plug-In . SVG Version: 6.00 Build 0)  -->
<svg version="1.1" id="Capa_1" xmlns="http://www.w3.org/2000/svg" xmlns:xlink="http://www.w3.org/1999/xlink" x="0px" y="0px"
	 viewBox="0 91 612 612" style="enable-background:new 0 91 612 612;" xml:space="preserve">
<style type="text/css">
	.st0{fill:#FFFFFF;stroke:#000000;stroke-miterlimit:10;}
	.st1{fill:#010002;}
</style>
<circle class="st0" cx="308.4" cy="403.7" r="260.5"/>
<g>
	<g>
		<path class="st1" d="M306,703c-28.2,0-55.3-3.7-81.4-11c-26.1-7.3-50.5-17.6-73.1-30.9s-43.2-29.2-61.8-47.7
			c-18.6-18.6-34.5-39.2-47.7-61.8c-13.3-22.6-23.6-47-30.9-73.1C3.7,452.3,0,425.2,0,397s3.7-55.3,11-81.4s17.6-50.5,30.9-73.1
			s29.2-43.2,47.7-61.8s39.2-34.5,61.8-47.7c22.6-13.3,47-23.6,73.1-30.9c26.1-7.3,53.2-11,81.4-11c42,0,81.7,8.1,119,24.2
			s69.8,37.9,97.3,65.5s49.4,60,65.5,97.3S612,355,612,397c0,28.2-3.7,55.3-11,81.4c-7.3,26.1-17.6,50.5-30.9,73.1
			c-13.3,22.6-29.2,43.2-47.7,61.8c-18.6,18.6-39.2,34.5-61.8,47.7c-22.6,13.3-47,23.6-73.1,30.9C361.3,699.3,334.2,703,306,703z
			 M453.5,270.9H163.4c-2.9,0-5.3,0.9-7.3,2.8s-3.1,4.4-3.1,7.6v32.4c0,1.6,0.6,2.4,1.8,2.4l152.4,86.9l1.2,0.6
			c0.8,0,1.4-0.2,1.8-0.6l147.5-86.9c0.8-0.4,1.4-0.6,1.8-0.6c0.4,0,1-0.2,1.8-0.6c1.6,0,2.4-0.8,2.4-2.4v-31.2c0-3.3-1-5.8-3.1-7.6
			S456.3,270.9,453.5,270.9z M245.4,401.3c0.4-0.4,0.6-1,0.6-1.8c0-1.2-0.4-1.8-1.2-1.8l-87.5-50.2c-1.2-0.4-2.2-0.4-3.1,0
			c-0.8,0-1.2,0.6-1.2,1.8v131.6c0,1.2,0.6,2,1.8,2.4h1.2c0.8,0,1.2-0.2,1.2-0.6L245.4,401.3z M351.9,411.1
			c-0.4-1.2-1.4-1.4-3.1-0.6L315.2,430c-4.1,2.4-8.4,2.4-12.9,0l-29.4-16.5c-1.2-0.8-2.2-0.8-3.1,0l-112,104
			c-0.4,0.4-0.6,1.2-0.6,2.4c0,0.4,0.4,1,1.2,1.8c2.4,0.8,4.1,1.2,4.9,1.2h287c0.8,0,1.6-0.4,2.4-1.2c0-1.6-0.2-2.6-0.6-3.1
			L351.9,411.1z M462.1,345h-2.4l-83.2,49.6c-0.8,0-1.2,0.6-1.2,1.8c-0.4,0.4-0.2,1,0.6,1.8l83.2,90c0.8,0.8,1.4,1.2,1.8,1.2h1.2
			c1.2-1.2,1.8-2,1.8-2.4V347.4C463.9,346.6,463.3,345.8,462.1,345z"/>
	</g>
</g>
</svg>
